<svg width="22" height="22" viewBox="0 0 22 22" fill="none" xmlns="http://www.w3.org/2000/svg">
<path d="M11 0C8.82441 0 6.69767 0.645139 4.88873 1.85383C3.07979 3.06253 1.66989 4.78049 0.83733 6.79048C0.00476612 8.80047 -0.21307 11.0122 0.211367 13.146C0.635804 15.2798 1.68345 17.2398 3.22183 18.7782C4.76021 20.3165 6.72022 21.3642 8.85401 21.7886C10.9878 22.2131 13.1995 21.9952 15.2095 21.1627C17.2195 20.3301 18.9375 18.9202 20.1462 17.1113C21.3549 15.3023 22 13.1756 22 11C22 9.55546 21.7155 8.12506 21.1627 6.79048C20.6099 5.4559 19.7996 4.24327 18.7782 3.22182C17.7567 2.20038 16.5441 1.39013 15.2095 0.837325C13.8749 0.284523 12.4445 0 11 0ZM11 17.6C10.7824 17.6 10.5698 17.5355 10.3889 17.4146C10.208 17.2937 10.067 17.1219 9.98374 16.9209C9.90048 16.7199 9.87869 16.4988 9.92114 16.2854C9.96358 16.072 10.0683 15.876 10.2222 15.7222C10.376 15.5683 10.572 15.4636 10.7854 15.4211C10.9988 15.3787 11.22 15.4005 11.421 15.4837C11.622 15.567 11.7937 15.708 11.9146 15.8889C12.0355 16.0698 12.1 16.2824 12.1 16.5C12.1 16.7917 11.9841 17.0715 11.7778 17.2778C11.5715 17.4841 11.2917 17.6 11 17.6ZM12.881 12.529C12.1 12.903 12.1 12.958 12.1 13.2C12.1 13.4917 11.9841 13.7715 11.7778 13.9778C11.5715 14.1841 11.2917 14.3 11 14.3C10.7083 14.3 10.4285 14.1841 10.2222 13.9778C10.0159 13.7715 9.9 13.4917 9.9 13.2C9.9154 12.6 10.1192 12.0201 10.4824 11.5424C10.8456 11.0646 11.35 10.7132 11.924 10.538C12.771 10.131 13.2 9.9 13.2 8.8C13.2 8.6091 13.1503 8.4215 13.0558 8.25563C12.9612 8.08977 12.8252 7.95136 12.661 7.854C12.1587 7.5577 11.583 7.40901 11 7.425C10.241 7.425 8.8 7.711 8.8 8.8C8.8 9.09174 8.68411 9.37152 8.47782 9.57781C8.27153 9.7841 7.99174 9.9 7.7 9.9C7.40826 9.9 7.12848 9.7841 6.92219 9.57781C6.7159 9.37152 6.6 9.09174 6.6 8.8C6.6 6.732 8.448 5.225 11 5.225C13.552 5.225 15.4 6.732 15.4 8.8C15.4399 9.61038 15.216 10.4119 14.7618 11.0842C14.3076 11.7565 13.6477 12.2635 12.881 12.529Z" fill="#F5BF03"/>
</svg>
