<svg width="20" height="24" viewBox="0 0 20 24" fill="none" xmlns="http://www.w3.org/2000/svg">
<path d="M16.8 0H2.4C1.76348 0 1.15303 0.252856 0.702948 0.702943C0.252861 1.15303 4.58486e-06 1.76348 4.58486e-06 2.4V5.568C-0.00109105 6.12876 0.19421 6.67221 0.552004 7.104L6 13.632V22.8C5.99959 23.0039 6.05117 23.2046 6.14985 23.3831C6.24853 23.5615 6.39107 23.7119 6.564 23.82C6.75497 23.9383 6.97533 24.0007 7.2 24C7.38785 23.9989 7.57281 23.9537 7.74 23.868L12.54 21.468C12.7379 21.3683 12.9043 21.2157 13.0208 21.0272C13.1373 20.8387 13.1993 20.6216 13.2 20.4V13.632L18.648 7.104C19.0058 6.67221 19.2011 6.12876 19.2 5.568V2.4C19.2 1.76348 18.9471 1.15303 18.4971 0.702943C18.047 0.252856 17.4365 0 16.8 0Z" fill="#F5BF03"/>
</svg>
