<svg width="17" height="17" viewBox="0 0 17 17" fill="none" xmlns="http://www.w3.org/2000/svg">
<path d="M8.04521 9.84167C7.80792 9.84167 7.58035 9.7474 7.41256 9.57962C7.24478 9.41183 7.15051 9.18426 7.15051 8.94697V0.894697C7.15051 0.657409 7.24478 0.429839 7.41256 0.262051C7.58035 0.0942624 7.80792 0 8.04521 0C8.2825 0 8.51007 0.0942624 8.67786 0.262051C8.84564 0.429839 8.93991 0.657409 8.93991 0.894697V8.94697C8.93991 9.18426 8.84564 9.41183 8.67786 9.57962C8.51007 9.7474 8.2825 9.84167 8.04521 9.84167Z" fill="black"/>
<path d="M8.04519 16.9987C6.45364 16.9973 4.89819 16.5243 3.5753 15.6394C2.25241 14.7545 1.22142 13.4974 0.612549 12.0269C0.00367521 10.5565 -0.155774 8.93851 0.154339 7.37745C0.464452 5.8164 1.23022 4.38225 2.35492 3.25615C2.52608 3.10958 2.74624 3.03299 2.97142 3.04168C3.19659 3.05038 3.41019 3.14373 3.56953 3.30307C3.72887 3.46241 3.82222 3.67601 3.83091 3.90118C3.83961 4.12635 3.76302 4.34652 3.61644 4.51767C2.74063 5.39358 2.14421 6.50952 1.90261 7.72438C1.66101 8.93924 1.78507 10.1985 2.25911 11.3428C2.73315 12.4872 3.53588 13.4653 4.56579 14.1534C5.5957 14.8416 6.80654 15.2089 8.04519 15.2089C9.28385 15.2089 10.4947 14.8416 11.5246 14.1534C12.5545 13.4653 13.3572 12.4872 13.8313 11.3428C14.3053 10.1985 14.4294 8.93924 14.1878 7.72438C13.9462 6.50952 13.3498 5.39358 12.4739 4.51767C12.3274 4.34652 12.2508 4.12635 12.2595 3.90118C12.2682 3.67601 12.3615 3.46241 12.5209 3.30307C12.6802 3.14373 12.8938 3.05038 13.119 3.04168C13.3441 3.03299 13.5643 3.10958 13.7355 3.25615C14.8602 4.38225 15.6259 5.8164 15.936 7.37745C16.2462 8.93851 16.0867 10.5565 15.4778 12.0269C14.869 13.4974 13.838 14.7545 12.5151 15.6394C11.1922 16.5243 9.63675 16.9973 8.04519 16.9987Z" fill="black"/>
</svg>
