<svg width="18" height="23" viewBox="0 0 18 23" fill="none" xmlns="http://www.w3.org/2000/svg">
<path d="M15.3333 7.66667H14.2381V5.47619C14.2381 2.45333 11.7848 0 8.7619 0C5.73905 0 3.28571 2.45333 3.28571 5.47619V7.66667H2.19048C0.985714 7.66667 0 8.65238 0 9.85714V20.8095C0 22.0143 0.985714 23 2.19048 23H15.3333C16.5381 23 17.5238 22.0143 17.5238 20.8095V9.85714C17.5238 8.65238 16.5381 7.66667 15.3333 7.66667ZM8.7619 17.5238C7.55714 17.5238 6.57143 16.5381 6.57143 15.3333C6.57143 14.1286 7.55714 13.1429 8.7619 13.1429C9.96667 13.1429 10.9524 14.1286 10.9524 15.3333C10.9524 16.5381 9.96667 17.5238 8.7619 17.5238ZM12.1571 7.66667H5.36667V5.47619C5.36667 3.60333 6.88905 2.08095 8.7619 2.08095C10.6348 2.08095 12.1571 3.60333 12.1571 5.47619V7.66667Z" fill="#F5BF03"/>
</svg>
