<svg width="24" height="24" viewBox="0 0 24 24" fill="none" xmlns="http://www.w3.org/2000/svg">
<path d="M23.9064 16.0436V21.2978C23.9104 21.6841 23.8308 22.0667 23.6728 22.4192C23.5149 22.7718 23.2825 23.0859 22.9915 23.34C22.7005 23.5942 22.358 23.7822 21.9874 23.8913C21.6168 24.0003 21.2269 24.0278 20.8447 23.9717C15.5463 23.2911 10.6249 20.8669 6.85607 17.0811C3.08722 13.2953 0.685118 8.3631 0.0282652 3.06168C-0.0275907 2.68058 -0.00045348 2.29191 0.10782 1.92227C0.216094 1.55263 0.402948 1.21074 0.655596 0.920005C0.908243 0.62927 1.22072 0.396549 1.57164 0.237768C1.92256 0.0789878 2.30365 -0.00210415 2.68881 4.14937e-05H7.86284C8.19336 -0.00196358 8.5129 0.118532 8.7598 0.338271C9.0067 0.558011 9.16345 0.861419 9.1998 1.18994C9.33247 2.94212 9.78564 4.65507 10.5368 6.24364C10.6656 6.54449 10.6795 6.88214 10.5761 7.19261C10.4726 7.50308 10.2588 7.76481 9.97524 7.92821L8.82546 8.58332C8.65973 8.67447 8.51522 8.79975 8.40149 8.95088C8.28776 9.10201 8.20739 9.27555 8.16569 9.46004C8.12399 9.64452 8.12191 9.83576 8.15959 10.0211C8.19726 10.2065 8.27384 10.3817 8.38426 10.5353C9.70695 12.4728 11.3801 14.146 13.3176 15.4687C13.4712 15.5791 13.6465 15.6557 13.8318 15.6933C14.0172 15.731 14.2084 15.7289 14.3929 15.6872C14.5774 15.6455 14.7509 15.5652 14.902 15.4514C15.0532 15.3377 15.1784 15.1932 15.2696 15.0275L15.9247 13.8777C16.0979 13.5904 16.3727 13.3787 16.6946 13.2846C17.0166 13.1905 17.3621 13.2209 17.6628 13.3696C19.2513 14.1208 20.9643 14.5739 22.7165 14.7066C23.045 14.7429 23.3484 14.8997 23.5681 15.1466C23.7879 15.3935 23.9084 15.713 23.9064 16.0436Z" fill="#F5BF03"/>
</svg>
