<svg width="25" height="25" viewBox="0 0 25 25" fill="none" xmlns="http://www.w3.org/2000/svg">
<path d="M23 23L16.9333 16.9333M19.5 10.75C19.5 12.4806 18.9868 14.1723 18.0254 15.6112C17.0639 17.0502 15.6973 18.1717 14.0985 18.8339C12.4996 19.4962 10.7403 19.6695 9.04296 19.3319C7.34563 18.9943 5.78653 18.1609 4.56282 16.9372C3.33911 15.7135 2.50575 14.1544 2.16813 12.457C1.83051 10.7597 2.00379 9.00037 2.66606 7.40152C3.32832 5.80267 4.44983 4.4361 5.88876 3.47464C7.32769 2.51318 9.01942 2 10.75 2C13.0706 2 15.2962 2.92187 16.9372 4.56282C18.5781 6.20376 19.5 8.42936 19.5 10.75Z" stroke="#F5BF03" stroke-width="3" stroke-linecap="round" stroke-linejoin="round"/>
</svg>
