<svg width="26" height="26" viewBox="0 0 26 26" fill="none" xmlns="http://www.w3.org/2000/svg">
<path d="M24.5561 10.1142H23.7112C23.4255 10.0938 23.1516 9.99255 22.9214 9.82221C22.6911 9.65186 22.5142 9.41948 22.4113 9.15225V9.10025C22.2879 8.83032 22.2491 8.52934 22.3002 8.23696C22.3512 7.94458 22.4897 7.67453 22.6972 7.46238L23.2952 6.86442C23.5635 6.58996 23.7138 6.22135 23.7138 5.8375C23.7138 5.45364 23.5635 5.08504 23.2952 4.81058L21.1763 2.78273C20.9019 2.51437 20.5333 2.36411 20.1494 2.36411C19.7656 2.36411 19.397 2.51437 19.1225 2.78273L18.5245 3.38068C18.3135 3.58557 18.0458 3.72236 17.7561 3.77335C17.4663 3.82434 17.168 3.78717 16.8997 3.66666C16.6324 3.5637 16.4001 3.38677 16.2297 3.15656C16.0594 2.92636 15.9581 2.65241 15.9377 2.36676V1.44383C15.9379 1.24989 15.8989 1.05792 15.8232 0.879378C15.7474 0.700841 15.6365 0.539405 15.4969 0.404718C15.3574 0.27003 15.1921 0.164856 15.011 0.0954795C14.8299 0.026103 14.6367 -0.0060516 14.4429 0.000937233H11.5571C11.1744 0.000937233 10.8074 0.152956 10.5368 0.42355C10.2662 0.694145 10.1142 1.06115 10.1142 1.44383V2.28877C10.0938 2.57442 9.99255 2.84837 9.82221 3.07857C9.65186 3.30877 9.41948 3.4857 9.15225 3.58867H9.10025C8.83938 3.71928 8.54552 3.76926 8.25613 3.73222C7.96674 3.69517 7.69494 3.5728 7.47538 3.38068L6.87742 2.78273C6.60296 2.51437 6.23435 2.36411 5.8505 2.36411C5.46664 2.36411 5.09804 2.51437 4.82358 2.78273L2.78273 4.82358C2.51437 5.09804 2.36411 5.46664 2.36411 5.8505C2.36411 6.23435 2.51437 6.60296 2.78273 6.87742L3.38068 7.47538C3.58557 7.68644 3.72236 7.95417 3.77335 8.24387C3.82434 8.53358 3.78717 8.83191 3.66666 9.10025C3.5637 9.36748 3.38677 9.59986 3.15656 9.77021C2.92636 9.94056 2.65241 10.0418 2.36676 10.0622H1.44383C1.24989 10.0621 1.05792 10.101 0.879378 10.1768C0.700841 10.2525 0.539405 10.3635 0.404718 10.503C0.27003 10.6425 0.164856 10.8078 0.0954795 10.9889C0.026103 11.17 -0.0060516 11.3633 0.000937233 11.5571V14.4429C0.000937233 14.8255 0.152956 15.1925 0.42355 15.4631C0.694145 15.7337 1.06115 15.8857 1.44383 15.8857H2.28877C2.57442 15.9061 2.84837 16.0074 3.07857 16.1777C3.30877 16.3481 3.4857 16.5804 3.58867 16.8477C3.71205 17.1176 3.75077 17.4186 3.69972 17.711C3.64867 18.0033 3.51025 18.2734 3.30269 18.4855L2.70473 19.0835C2.43637 19.358 2.28611 19.7266 2.28611 20.1104C2.28611 20.4943 2.43637 20.8629 2.70473 21.1374L4.74558 23.1782C5.02004 23.4466 5.38865 23.5968 5.7725 23.5968C6.15636 23.5968 6.52497 23.4466 6.79943 23.1782L7.39738 22.5802C7.6192 22.3652 7.90315 22.2256 8.20887 22.1813C8.51458 22.137 8.8265 22.1901 9.10025 22.3333C9.36748 22.4362 9.59986 22.6132 9.77021 22.8434C9.94056 23.0736 10.0418 23.3475 10.0622 23.6332V24.4781C10.0512 24.6785 10.0821 24.879 10.153 25.0667C10.2239 25.2545 10.3332 25.4254 10.4739 25.5686C10.6146 25.7117 10.7836 25.8239 10.9701 25.898C11.1566 25.9721 11.3565 26.0065 11.5571 25.999H14.4429C14.8255 25.999 15.1925 25.847 15.4631 25.5764C15.7337 25.3058 15.8857 24.9388 15.8857 24.5561V23.7112C15.9061 23.4255 16.0074 23.1516 16.1777 22.9214C16.3481 22.6911 16.5804 22.5142 16.8477 22.4113C17.1176 22.2879 17.4186 22.2491 17.711 22.3002C18.0033 22.3512 18.2734 22.4897 18.4855 22.6972L19.0835 23.2952C19.358 23.5635 19.7266 23.7138 20.1104 23.7138C20.4943 23.7138 20.8629 23.5635 21.1374 23.2952L23.1782 21.2543C23.4466 20.9799 23.5968 20.6113 23.5968 20.2274C23.5968 19.8436 23.4466 19.475 23.1782 19.2005L22.5802 18.6025C22.3652 18.3807 22.2256 18.0968 22.1813 17.7911C22.137 17.4853 22.1901 17.1734 22.3333 16.8997C22.4362 16.6324 22.6132 16.4001 22.8434 16.2297C23.0736 16.0594 23.3475 15.9581 23.6332 15.9377H24.4781C24.6785 15.9487 24.879 15.9178 25.0667 15.8469C25.2545 15.776 25.4254 15.6667 25.5686 15.526C25.7117 15.3854 25.8239 15.2164 25.898 15.0298C25.9721 14.8433 26.0065 14.6434 25.999 14.4429V11.5571C25.999 11.1744 25.847 10.8074 25.5764 10.5368C25.3058 10.2662 24.9388 10.1142 24.5561 10.1142ZM13 18.1996C11.9716 18.1996 10.9663 17.8946 10.1112 17.3233C9.25614 16.7519 8.58969 15.9399 8.19615 14.9898C7.8026 14.0397 7.69963 12.9942 7.90026 11.9856C8.10089 10.9769 8.5961 10.0505 9.32328 9.32328C10.0505 8.5961 10.9769 8.10089 11.9856 7.90026C12.9942 7.69963 14.0397 7.8026 14.9898 8.19615C15.9399 8.58969 16.7519 9.25614 17.3233 10.1112C17.8946 10.9663 18.1996 11.9716 18.1996 13C18.1996 14.379 17.6518 15.7015 16.6766 16.6766C15.7015 17.6518 14.379 18.1996 13 18.1996Z" fill="white"/>
</svg>
